<?xml version="1.0" encoding="UTF-8" standalone="no"?>
<svg xmlns="http://www.w3.org/2000/svg" xml:space="preserve" width="691.09998" height="576.5">
  <g transform="translate(-134.39999 -191.8)">
    <path fill="#c1272d" d="M310.10001 226.10001h133.60001V710.9H310.10001z"/>
    <path fill="#ad1f2a" d="M413.20001 226.10001h30.5V710.9h-30.5z"/>
    <path fill="#fbb03b" d="M310.10001 268.10001h133.60001v76.300003H310.10001z" class="st2"/>
    <path fill="#8c6239" d="M172.60001 191.8h137.5v519.20001h-137.5z"/>
    <path fill="#7f532f" d="M279.5 191.8H310v519.20001h-30.5z"/>
    <path fill="#603813" d="M172.60001 226.10001h137.5v61.099998h-137.5zm0 385.6h137.5v64.900002h-137.5z" class="st5"/>
    <path fill="#603813" d="M172.60001 611.70001h137.5v64.900002h-137.5zm0-38.20001h137.5v19.1h-137.5z" class="st5"/>
    <path fill="#fbb03b" d="M310.10001 367.39999h133.60001v11.5H310.10001zm0 271.00003h133.60001v11.5H310.10001zm0 26.69996h133.60001v19.1H310.10001z" class="st2"/>
    <path fill="#0071bc" d="M443.70001 207.10001h122.2V711h-122.2z"/>
    <path fill="#04679e" d="M535.40002 207.10001h30.5V711h-30.5z"/>
    <path fill="#2e3192" d="M539.2 590.7c0 20-16.2 36.3-36.3 36.3-20 0-36.3-16.2-36.3-36.3V292.9c0-20 16.2-36.3 36.3-36.3 20 0 36.3 16.2 36.3 36.3z" class="st8"/>
    <path fill="#fbb03b" d="M416 596.4h-70.6c-2.7 0-4.8-2.2-4.8-4.8V463.8c0-2.7 2.2-4.8 4.8-4.8H416c2.7 0 4.8 2.2 4.8 4.8v127.8c0 2.7-2.1 4.8-4.8 4.8z" class="st2"/>
    <path fill="#2dafd3" d="m564.54225494 234.62381787 131.78461362-25.34670812L787.83566204 685.056881l-131.78461362 25.3467081z"/>
    <path fill="#229eba" d="m664.22526406 215.5329435 32.01324993-6.15724764 91.50879348 475.77977123-32.01324993 6.15724765z"/>
    <path fill="#0f6193" d="m573.30359927 279.1163694 131.19542249-25.23338643 2.17203534 11.2930183-131.19542248 25.23338643zm5.09904373 26.70094372 131.1954225-25.23338643 2.17203534 11.2930183-131.19542249 25.23338644zm63.4001763 329.19165342 131.1954225-25.23338642 2.17203534 11.2930183-131.19542249 25.23338643zm5.09904185 26.70093391 131.19542249-25.23338643 2.17203535 11.2930183-131.1954225 25.23338644z" class="st11"/>
    <circle cx="241.7" cy="367.29999" r="39" fill="#603813" class="st5"/>
    <path fill="#2e3192" d="M531.5 669h-57.3c-3.2 0-5.7-2.6-5.7-5.7s2.6-5.7 5.7-5.7h57.3c3.2 0 5.7 2.6 5.7 5.7s-2.5 5.7-5.7 5.7z" class="st8"/>
    <path fill="#0f6193" d="m728.4 582.6-51.1 9.8c-3.5.7-6.8-1.6-7.5-5.1L626.7 363c-.7-3.5 1.6-6.8 5.1-7.5l51.1-9.8c3.5-.7 6.8 1.6 7.5 5.1l43.2 224.4c.5 3.4-1.8 6.8-5.2 7.4z" class="st11"/>
    <path fill="#603813" d="M134.39999 711h691.09998v57.299999H134.39999z" class="st5"/>
  </g>
</svg>